<?xml version="1.0" encoding="utf-8"?>
<!-- Generator: Adobe Illustrator 16.0.0, SVG Export Plug-In . SVG Version: 6.00 Build 0)  -->
<!DOCTYPE svg PUBLIC "-//W3C//DTD SVG 1.1//EN" "http://www.w3.org/Graphics/SVG/1.1/DTD/svg11.dtd">
<svg version="1.1" id="Layer_1" xmlns="http://www.w3.org/2000/svg" xmlns:xlink="http://www.w3.org/1999/xlink" x="0px" y="0px"
	 width="90px" height="90px" viewBox="0 0 90 90" enable-background="new 0 0 90 90" xml:space="preserve">
<g>
	<g>
		<path fill="none" stroke="#8EBE38" stroke-width="3" stroke-miterlimit="10" d="M69.039,56.355
			C66.574,48.099,57.466,40.4,51.376,34.138c4.253-5.69,12.955-14.342,5.255-18.573c-1.663-0.913-3.748-0.099-4.28,1.744
			c-1.224,4.187-11.344-1.878-14.194-2.044C34.856,15.07,30.883,15.392,28.47,18c-0.325,0.353-0.54,0.727-0.665,1.106
			c-0.293,0.714-0.294,1.558,0.21,2.429c2.589,4.499,7.18,6.987,9.766,11.482c-5.373,6.256-13.079,13.493-15.587,21.319
			c-4.952,15.46,8.522,21.676,21.726,22.328C57.137,77.319,73.956,72.831,69.039,56.355z"/>
	</g>
</g>
<text transform="matrix(1 0 0 1 32.833 60.666)" fill="#8EBE38" font-family="'Helvetica'" font-size="16.1189">CO</text>
<text transform="matrix(1 0 0 1 55.4863 63.5293)" fill="#8EBE38" font-family="'Helvetica'" font-size="8.0431">2</text>
</svg>
