<?xml version="1.0" encoding="utf-8"?>
<!-- Generator: Adobe Illustrator 16.0.0, SVG Export Plug-In . SVG Version: 6.00 Build 0)  -->
<!DOCTYPE svg PUBLIC "-//W3C//DTD SVG 1.1//EN" "http://www.w3.org/Graphics/SVG/1.1/DTD/svg11.dtd">
<svg version="1.1" id="Layer_1" xmlns="http://www.w3.org/2000/svg" xmlns:xlink="http://www.w3.org/1999/xlink" x="0px" y="0px"
	 width="90px" height="90px" viewBox="0 0 90 90" enable-background="new 0 0 90 90" xml:space="preserve">
<g>
	<g>
		<path fill="none" stroke="#9B9B9B" stroke-width="3" stroke-miterlimit="10" stroke-dasharray="10,5" d="M69.136,56.402
			c-2.475-8.29-11.321-16.021-17.437-22.309c4.271-5.714,13.714-16.41,5.981-20.658c-1.671-0.917-3.764-0.1-4.298,1.751
			c-1.229,4.204-13.399-1.886-16.261-2.053c-3.314-0.195-7.304,0.128-9.727,2.748c-0.326,0.354-0.542,0.73-0.667,1.11
			c-0.294,0.717-0.295,1.564,0.21,2.438c2.6,4.517,7.915,9.024,10.512,13.538c-5.395,6.282-12.834,13.549-15.353,21.407
			c-4.972,15.523,8.557,21.765,21.816,22.42C57.186,77.453,74.073,72.946,69.136,56.402z"/>
	</g>
</g>
</svg>
