<?xml version="1.0" encoding="utf-8"?>
<!-- Generator: Adobe Illustrator 16.0.0, SVG Export Plug-In . SVG Version: 6.00 Build 0)  -->
<!DOCTYPE svg PUBLIC "-//W3C//DTD SVG 1.1//EN" "http://www.w3.org/Graphics/SVG/1.1/DTD/svg11.dtd">
<svg version="1.1" id="Layer_1" xmlns="http://www.w3.org/2000/svg" xmlns:xlink="http://www.w3.org/1999/xlink" x="0px" y="0px"
	 width="100px" height="41.709px" viewBox="0 0 100 41.709" enable-background="new 0 0 100 41.709" xml:space="preserve">
<path fill="#8EBE38" d="M0.139,31.403c0.245-0.489,0.521-1.036,0.821-1.618c-0.254-0.271-0.412-0.64-0.412-1.043
	c0-0.84,0.668-1.521,1.489-1.521h0.299c0.108-0.191,0.215-0.382,0.326-0.575c1.93-3.363,4.34-6.67,7.816-10.723
	c5.268-6.145,9.732-9.953,14.477-12.353C29.845,1.101,35.238,0,42.441,0c3.663,0,7.659,0.197,12.071,1.637
	c5.746,1.874,10.583,5.436,14.372,10.585c0.062,0.086,0.115,0.207,0.237,0.272c0,0,0.345,0.021,0.366,0.021
	c9.211,0.064,18.253,3.342,21.68,6.514l0.005,0.002l1.604,1.477c0.354,0.174,2.641,0.113,2.641,1.63v2.78
	c0,0.045-0.002,0.09-0.006,0.133c0,0.21,0,0.423-0.002,0.626c0.194,0.499,0.376,1.015,0.549,1.545h0.553
	c0.82,0,1.488,0.681,1.488,1.521c0,0.805-0.614,1.461-1.391,1.512c0.056,0.968-0.041,1.646-0.041,1.646
	c-1.043,0.09-1.666-0.353-1.785-1.25c-0.625-4.677-5.372-7.871-10.223-7.871c-5.303,0-9.71,3.979-10.506,9.164
	c-0.084,0.552-0.945,2.688-4.435,2.688c-4.565,0-35.037,0-35.037,0c-2.772,0-3.091-2.102-3.169-2.633
	c-0.771-5.213-5.194-9.222-10.514-9.222c-4.946,0-9.116,3.466-10.297,8.142c-0.219,0.865-0.927,2.711-5.113,2.711
	c-2.195,0-3.729-0.248-4.301-0.357c-0.17-0.012-0.341-0.055-0.503-0.139C0.068,32.81-0.179,32.037,0.139,31.403z M44.186,13.768
	h0.521h3.141h17.384c0.45,0,0.815-0.366,0.815-0.818c0-0.123-0.027-0.238-0.073-0.341C58.722,3.674,49.434,2.692,44.188,2.586
	L44.186,13.768L44.186,13.768z M17.8,13.768h23.867V2.576c-10.263,0.119-16.959,2.659-24.313,9.723
	C17.264,12.385,15.983,13.768,17.8,13.768z"/>
<path fill="#8EBE38" d="M20.897,25.549c4.368,0,7.92,3.623,7.92,8.08c0,4.455-3.553,8.08-7.92,8.08c-4.364,0-7.915-3.625-7.915-8.08
	C12.982,29.172,16.534,25.549,20.897,25.549z M20.897,38.494c2.632,0,4.77-2.185,4.77-4.865c0-2.685-2.14-4.865-4.77-4.865
	c-2.628,0-4.766,2.184-4.766,4.865C16.131,36.312,18.271,38.494,20.897,38.494z"/>
<path fill="#8EBE38" d="M84.559,25.549c0.683,0,1.346,0.089,1.979,0.255c3.413,0.897,5.94,4.063,5.94,7.825
	c0,3.758-2.528,6.926-5.94,7.824c-0.633,0.166-1.296,0.256-1.979,0.256c-4.365,0-7.918-3.625-7.918-8.08
	C76.641,29.172,80.193,25.549,84.559,25.549z M89.327,33.629c0-2.686-2.14-4.866-4.767-4.866c-2.629,0-4.77,2.184-4.77,4.866
	c0,2.682,2.141,4.863,4.77,4.863C87.188,38.494,89.327,36.312,89.327,33.629z"/>
</svg>
