<?xml version="1.0" encoding="utf-8"?>
<!-- Generator: Adobe Illustrator 16.0.0, SVG Export Plug-In . SVG Version: 6.00 Build 0)  -->
<!DOCTYPE svg PUBLIC "-//W3C//DTD SVG 1.1//EN" "http://www.w3.org/Graphics/SVG/1.1/DTD/svg11.dtd">
<svg version="1.1" id="Layer_1" xmlns="http://www.w3.org/2000/svg" xmlns:xlink="http://www.w3.org/1999/xlink" x="0px" y="0px"
	 width="100px" height="41.709px" viewBox="0 0 100 41.709" enable-background="new 0 0 100 41.709" xml:space="preserve">
<g>
	<path fill="#FFFFFF" d="M2.139,32.026c0.245-0.489,0.521-1.036,0.821-1.618c-0.254-0.271-0.412-0.64-0.412-1.043
		c0-0.841,0.668-1.521,1.489-1.521h0.299c0.108-0.191,0.215-0.384,0.326-0.576c1.93-3.362,4.34-6.669,7.816-10.724
		c5.268-6.144,9.732-9.952,14.477-12.352c4.89-2.469,10.283-3.57,17.486-3.57c3.663,0,7.659,0.197,12.071,1.637
		c5.746,1.874,10.584,5.436,14.372,10.585c0.062,0.086,0.115,0.207,0.237,0.272c0,0,0.345,0.021,0.365,0.021
		c9.212,0.064,18.254,3.342,21.681,6.514l0.005,0.002l1.604,1.477c0.354,0.175,2.643,0.113,2.643,1.63v2.78
		c0,0.045-0.002,0.09-0.006,0.133c0,0.21,0,0.423-0.002,0.626c0.193,0.499,0.376,1.016,0.549,1.545h0.553
		c0.82,0,1.488,0.682,1.488,1.521c0,0.805-0.614,1.461-1.393,1.512c0.058,0.969-0.041,1.646-0.041,1.646
		c-1.043,0.09-1.666-0.354-1.783-1.25c-0.118,4.08-6.433,9.58-11.285,9.58c-5.303,0-7.056-1.16-9.529-7.735
		c-0.084,0.552-0.861,2.136-4.351,2.136c-4.565,0-35.037,0-35.037,0c-2.772,0-3.091-2.102-3.169-2.633
		c-0.581,2.066-5.193,8.232-10.513,8.232c-4.946,0-9.621-4.301-10.518-8.447c-0.219,0.865-0.708,1.846-4.894,1.846
		c-2.195,0-3.729-0.248-4.301-0.357c-0.17-0.012-0.341-0.055-0.503-0.139C2.068,33.433,1.821,32.66,2.139,32.026z"/>
	<g>
		<g>
			<path fill="none" stroke="#8EBE38" stroke-miterlimit="10" d="M3.831,34.003c-0.277-0.04-0.494-0.079-0.644-0.107
				c-0.17-0.012-0.341-0.055-0.503-0.139c-0.616-0.324-0.863-1.097-0.545-1.73c0.245-0.489,0.521-1.036,0.821-1.618
				c-0.254-0.271-0.412-0.64-0.412-1.043c0-0.841,0.668-1.521,1.489-1.521h0.299c0.108-0.191,0.215-0.384,0.326-0.576
				c0.699-1.218,1.46-2.428,2.313-3.669"/>
			<path fill="none" stroke="#8EBE38" stroke-miterlimit="10" stroke-dasharray="10.3924,4.157" d="M9.436,20.251
				c0.917-1.176,1.924-2.402,3.042-3.706c5.268-6.144,9.732-9.952,14.477-12.352c4.89-2.469,10.283-3.57,17.486-3.57
				c3.663,0,7.659,0.197,12.071,1.637c5.746,1.874,10.584,5.436,14.372,10.585c0.062,0.086,0.115,0.207,0.237,0.272
				c0,0,0.345,0.021,0.365,0.021c9.212,0.064,18.254,3.342,21.681,6.514l0.005,0.002l1.604,1.477
				c0.179,0.088,0.847,0.116,1.467,0.315"/>
			<path fill="none" stroke="#8EBE38" stroke-miterlimit="10" d="M97.418,22.939v2.602c0,0.045-0.002,0.09-0.006,0.133
				c0,0.21,0,0.423-0.002,0.626c0.193,0.499,0.376,1.016,0.549,1.545h0.553c0.82,0,1.488,0.682,1.488,1.521
				c0,0.805-0.614,1.461-1.393,1.512c0.058,0.969-0.041,1.646-0.041,1.646c-1.043,0.09-1.666-0.354-1.783-1.25
				c-0.041,1.417-0.83,3.006-2.045,4.476"/>
			<path fill="none" stroke="#8EBE38" stroke-miterlimit="10" stroke-dasharray="10.7633,4.3053" d="M91.562,38.638
				c-1.926,1.328-4.112,2.217-6.063,2.217c-2.78,0-4.585-0.319-6.029-1.57"/>
			<path fill="none" stroke="#8EBE38" stroke-miterlimit="10" d="M78.086,37.644c-0.717-1.107-1.385-2.579-2.117-4.524
				c-0.082,0.541-0.83,2.072-4.143,2.134"/>
			<path fill="none" stroke="#8EBE38" stroke-miterlimit="10" stroke-dasharray="10.8777,4.3511" d="M67.477,35.255
				c-7.603,0-22.326,0-28.291,0"/>
			<path fill="none" stroke="#8EBE38" stroke-miterlimit="10" d="M37.011,35.255c-0.28,0-0.43,0-0.43,0
				c-2.772,0-3.091-2.102-3.169-2.633c-0.25,0.892-1.252,2.548-2.738,4.142"/>
			<path fill="none" stroke="#8EBE38" stroke-miterlimit="10" stroke-dasharray="10.2457,4.0983" d="M27.537,39.387
				c-1.412,0.877-2.991,1.468-4.637,1.468c-2.455,0-4.843-1.06-6.735-2.634"/>
			<path fill="none" stroke="#8EBE38" stroke-miterlimit="10" d="M14.697,36.785c-1.16-1.336-1.988-2.867-2.315-4.378
				c-0.208,0.819-0.657,1.741-4.254,1.838"/>
		</g>
	</g>
</g>
</svg>
