<?xml version="1.0" encoding="utf-8"?>
<!-- Generator: Adobe Illustrator 16.0.0, SVG Export Plug-In . SVG Version: 6.00 Build 0)  -->
<!DOCTYPE svg PUBLIC "-//W3C//DTD SVG 1.1//EN" "http://www.w3.org/Graphics/SVG/1.1/DTD/svg11.dtd">
<svg version="1.1" id="Layer_1" xmlns="http://www.w3.org/2000/svg" xmlns:xlink="http://www.w3.org/1999/xlink" x="0px" y="0px"
	 width="69.5px" height="100px" viewBox="0 0 69.5 100" enable-background="new 0 0 69.5 100" xml:space="preserve">
<polyline fill="#AE6330" points="30.75,57.906 30.75,100 39.75,100 39.75,58.133 "/>
<line fill="none" x1="18.25" y1="100" x2="49.25" y2="100"/>
<line fill="#494949" x1="19.25" y1="100" x2="50.25" y2="100"/>
<g id="Capa_39">
	<g>
		<path fill="#8EBE38" d="M29.15,97.614c-0.031-0.532,0-1.112,0.132-1.741c0,0-1.208,1.152-1.264,2.894
			c-0.208,0.346-0.357,0.784-0.443,1.294h2.25c-0.257-0.499-0.514-1.155-0.627-1.967c0.184-0.27,0.395-0.545,0.667-0.819
			C29.865,97.274,29.55,97.365,29.15,97.614z M48.779,100.061h0.699c0.213-1.141,0.699-2.92,1.771-4.221
			C51.25,95.84,49.418,97.001,48.779,100.061z M48.555,93.6c-1.627,0.79-2.393,2.356-2.75,3.749
			c-0.326-0.417-0.723-0.819-1.215-1.184c0,0,0.223,0.47,0.412,1.202c-0.365,0.152-1.07,0.539-1.576,1.355
			c0.328-1.611,1.014-3.955,2.451-5.695c0,0-2.846,1.789-3.611,6.583c-0.027-1.517-0.494-3.553-2.504-5.031
			c0,0,0.93,1.954,0.594,4.103c-0.379-0.525-0.9-1.074-1.564-1.457c0.463-1.075,0.992-1.784,0.992-1.784
			c-0.705,0.376-1.262,0.896-1.711,1.467c-0.082-0.026-0.16-0.056-0.242-0.076c0,0,0.074,0.064,0.174,0.158
			c-0.549,0.726-0.916,1.525-1.168,2.236c-0.004-0.012-0.012-0.021-0.02-0.035c0.941-3.628-0.578-6.531-0.578-6.531
			c0.373,1.912,0.107,3.729-0.311,5.168c-1.064-1.182-2.326-1.53-2.326-1.53c0.962,0.961,1.538,1.949,1.884,2.797
			c-0.146,0.375-0.294,0.694-0.427,0.967h3.857c-0.057-0.481-0.029-1.008,0.148-1.586c0,0-0.457,0.3-0.877,0.813
			c0.088-0.589,0.246-1.15,0.434-1.646c0.488,0.576,1.027,1.426,1.211,2.419h3.936c0.09-0.53,0.369-1.542,1.271-2.551
			c0.166,0.695,0.287,1.599,0.17,2.551h1.76c-0.014-0.075-0.014-0.144-0.031-0.224l0.621,0.224h0.596
			c0.963-3.418-0.588-4.031-0.588-4.031c0.623,1.717-0.377,3.296-0.65,3.685c-0.094-0.409-0.229-0.827-0.422-1.245
			C46.551,95.229,48.555,93.6,48.555,93.6z M31.958,95.526c0.573,1.578,0.038,3.058-0.416,3.913
			c-1.712-3.224,0.947-5.488,0.947-5.488c-3.477,1.915-2.579,5.185-2.24,6.109h2.562C33.744,96.226,31.958,95.526,31.958,95.526z
			 M26.826,97.402c-0.14-0.295-0.317-0.583-0.518-0.868c0.37-0.379,0.634-0.596,0.634-0.596c-0.299,0.073-0.58,0.178-0.849,0.299
			c-0.314-0.39-0.695-0.763-1.159-1.108c0,0,0.277,0.589,0.476,1.466c-0.549,0.34-1.026,0.755-1.429,1.199
			c-0.245-0.228-0.522-0.432-0.829-0.599c0.232-0.479,0.513-0.939,0.855-1.355c0,0-0.564,0.362-1.176,1.196
			c-0.187-0.083-0.379-0.155-0.587-0.204c0,0,0.185,0.157,0.438,0.413c-0.195,0.29-0.388,0.636-0.568,1.028
			c-1.405-5.594-4.793-7.731-4.793-7.731c2.034,2.465,3.013,5.778,3.476,8.064c-0.994-1.602-2.577-2.039-2.577-2.039
			c1.279,1.28,1.793,2.612,2.005,3.493h3.949c0.02-0.068,0.033-0.141,0.054-0.208c0.017,0.067,0.021,0.14,0.036,0.208h3.17
			c-0.009-0.298-0.03-0.605-0.081-0.935c0.286-1.603,0.966-4.207,2.53-6.099C29.881,93.027,27.933,94.262,26.826,97.402z
			 M22.47,100.041c-0.031-0.204-0.07-0.391-0.106-0.586c0.135-0.575,0.33-1.232,0.615-1.885c0.183,0.21,0.377,0.462,0.565,0.747
			C23.049,98.956,22.694,99.59,22.47,100.041z M25.418,99.768c-0.142-0.292-0.366-0.703-0.679-1.13
			c0.248-0.461,0.532-0.875,0.812-1.235C25.638,98.12,25.63,98.938,25.418,99.768z"/>
	</g>
</g>
</svg>
